<svg width="35" height="35" viewBox="0 0 35 35" fill="none" xmlns="http://www.w3.org/2000/svg">
<g clip-path="url(#clip0_914_131)">
<path d="M17.5 35C27.165 35 35 27.165 35 17.5C35 7.83502 27.165 0 17.5 0C7.83502 0 0 7.83502 0 17.5C0 27.165 7.83502 35 17.5 35Z" fill="#1C98F7"/>
<path fill-rule="evenodd" clip-rule="evenodd" d="M17.8063 25.5117C18.5759 25.4582 19.3389 25.3337 20.0856 25.1398C21.0071 25.421 21.9813 25.4847 22.9316 25.3258C22.9692 25.3197 23.0072 25.3168 23.0453 25.317C23.3844 25.317 23.8295 25.5139 24.4781 25.9295V25.2459C24.4783 25.1277 24.5098 25.0116 24.5696 24.9095C24.6294 24.8075 24.7152 24.7231 24.8183 24.6652C25.1005 24.5055 25.363 24.3217 25.6025 24.1194C26.5475 23.3188 27.0813 22.2512 27.0813 21.1203C27.0813 20.7408 27.0211 20.3722 26.9073 20.02C27.1928 19.4873 27.4236 18.9273 27.5931 18.3466C28.1413 19.168 28.435 20.1328 28.4375 21.1203C28.4375 22.657 27.7222 24.0898 26.4852 25.1377C26.2787 25.3124 26.0613 25.4739 25.8344 25.6211V27.2191C25.8344 27.7692 25.2 28.0853 24.7527 27.7583C24.3296 27.4421 23.8916 27.1464 23.4402 26.8723C23.3109 26.795 23.1764 26.7266 23.0377 26.6678C22.6658 26.7236 22.2852 26.752 21.9013 26.752C20.3569 26.752 18.9295 26.2894 17.8063 25.5117ZM9.64031 22.3158C7.68906 20.6609 6.5625 18.4067 6.5625 15.9906C6.5625 11.0545 11.2197 7.10938 16.9061 7.10938C22.5936 7.10938 27.2508 11.0545 27.2508 15.9906C27.2508 20.9278 22.5925 24.873 16.9061 24.873C16.2673 24.873 15.6352 24.8238 15.0161 24.7253C14.7481 24.7888 13.6773 25.4253 12.1341 26.5519C11.5752 26.9609 10.7822 26.5661 10.7822 25.8781V23.1525C10.3825 22.9005 10.001 22.621 9.64031 22.3158ZM15.0533 23.0442C15.1003 23.0442 15.1484 23.0475 15.1955 23.0552C15.7533 23.1492 16.3264 23.1973 16.9061 23.1973C21.7098 23.1973 25.5544 19.9402 25.5544 15.9906C25.5544 12.0422 21.7098 8.785 16.9061 8.785C12.1045 8.785 8.25781 12.0422 8.25781 15.9906C8.25781 17.9003 9.15578 19.6984 10.7439 21.0437C11.1431 21.3806 11.5817 21.6869 12.052 21.9538C12.3156 22.1025 12.4786 22.3803 12.4786 22.68V24.2517C13.6992 23.4325 14.502 23.0442 15.0533 23.0442ZM12.4972 17.6673C11.748 17.6673 11.1409 17.0658 11.1409 16.3264C11.1409 15.5859 11.748 14.9855 12.4972 14.9855C13.2464 14.9855 13.8534 15.5859 13.8534 16.3264C13.8534 17.0669 13.2464 17.6673 12.4972 17.6673ZM16.9061 17.6673C16.1569 17.6673 15.5498 17.0658 15.5498 16.3264C15.5498 15.5859 16.1569 14.9855 16.9061 14.9855C17.6553 14.9855 18.2623 15.5859 18.2623 16.3264C18.2623 17.0669 17.6553 17.6673 16.9061 17.6673ZM21.315 17.6673C20.5658 17.6673 19.9587 17.0658 19.9587 16.3264C19.9587 15.5859 20.5658 14.9855 21.315 14.9855C22.0642 14.9855 22.6713 15.5859 22.6713 16.3264C22.6713 17.0669 22.0642 17.6673 21.315 17.6673Z" fill="white"/>
</g>
<defs>
<clipPath id="clip0_914_131">
<rect width="35" height="35" fill="white"/>
</clipPath>
</defs>
</svg>
