<svg width="355" height="130" viewBox="0 0 355 130" fill="none" xmlns="http://www.w3.org/2000/svg">
<g clip-path="url(#clip0_912_24)">
<path d="M34.8532 124.51V13.077H72.5053C81.2109 13.077 88.3569 14.5643 93.943 17.5387C99.5291 20.4769 103.664 24.5214 106.349 29.6722C109.033 34.8231 110.375 40.6813 110.375 47.2468C110.375 53.8124 109.033 59.6343 106.349 64.7126C103.664 69.7909 99.5473 73.781 93.9974 76.6829C88.4475 79.5485 81.356 80.9814 72.7229 80.9814H42.253V68.7934H72.2876C78.2365 68.7934 83.0246 67.9228 86.652 66.1817C90.3156 64.4406 92.9636 61.9739 94.5959 58.7819C96.2645 55.5535 97.0988 51.7085 97.0988 47.2468C97.0988 42.7852 96.2645 38.8858 94.5959 35.5486C92.9273 32.2114 90.2612 29.636 86.5976 27.8223C82.9339 25.9723 78.0914 25.0473 72.07 25.0473H48.347V124.51H34.8532ZM87.3049 74.4521L114.728 124.51H99.0576L72.07 74.4521H87.3049ZM140.478 125.38C137.793 125.38 135.49 124.419 133.567 122.497C131.645 120.574 130.684 118.271 130.684 115.586C130.684 112.902 131.645 110.599 133.567 108.676C135.49 106.754 137.793 105.793 140.478 105.793C143.162 105.793 145.465 106.754 147.388 108.676C149.31 110.599 150.271 112.902 150.271 115.586C150.271 117.364 149.818 118.996 148.911 120.483C148.041 121.971 146.862 123.168 145.375 124.074C143.924 124.945 142.291 125.38 140.478 125.38ZM179.626 124.51H165.479L206.396 13.077H220.325L261.242 124.51H247.095L213.796 30.706H212.925L179.626 124.51ZM184.849 80.9814H241.872V92.9517H184.849V80.9814Z" fill="#213AF4"/>
<path d="M294.668 87.9537C285.749 85.6145 281.878 28.6878 308.697 12.7419C317.063 7.75993 329.807 5.95641 333.857 11.0187C336.47 14.2865 335.399 20.322 322.128 44.9462C306.298 74.2667 298.378 88.9359 294.668 87.9537Z" fill="#213AF4" stroke="#213AF4" stroke-width="8" stroke-miterlimit="10"/>
<path d="M295.5 121C301.299 121 306 116.299 306 110.5C306 104.701 301.299 100 295.5 100C289.701 100 285 104.701 285 110.5C285 116.299 289.701 121 295.5 121Z" fill="#213AF4" stroke="#213AF4" stroke-width="8" stroke-miterlimit="10"/>
</g>
<defs>
<clipPath id="clip0_912_24">
<rect width="355" height="130" fill="white"/>
</clipPath>
</defs>
</svg>
