<?xml version="1.0" encoding="UTF-8"?>
<svg width="270px" height="80px" viewBox="0 0 270 80" version="1.1" xmlns="http://www.w3.org/2000/svg" xmlns:xlink="http://www.w3.org/1999/xlink">
    <title>_UI Buttons /SVG /playStore_button</title>
    <defs>
        <linearGradient x1="61.0301652%" y1="4.94958549%" x2="26.4625815%" y2="71.9258683%" id="linearGradient-1">
            <stop stop-color="#00A0FF" offset="0%"></stop>
            <stop stop-color="#00A1FF" offset="0.6569999%"></stop>
            <stop stop-color="#00BEFF" offset="26.01%"></stop>
            <stop stop-color="#00D2FF" offset="51.22%"></stop>
            <stop stop-color="#00DFFF" offset="76.04%"></stop>
            <stop stop-color="#00E3FF" offset="100%"></stop>
        </linearGradient>
        <linearGradient x1="107.630451%" y1="50.0004315%" x2="-130.551706%" y2="50.0004315%" id="linearGradient-2">
            <stop stop-color="#FFE000" offset="0%"></stop>
            <stop stop-color="#FFBD00" offset="40.87%"></stop>
            <stop stop-color="#FFA500" offset="77.54%"></stop>
            <stop stop-color="#FF9C00" offset="100%"></stop>
        </linearGradient>
        <linearGradient x1="86.243474%" y1="30.90425%" x2="-50.1292379%" y2="136.019454%" id="linearGradient-3">
            <stop stop-color="#FF3A44" offset="0%"></stop>
            <stop stop-color="#C31162" offset="100%"></stop>
        </linearGradient>
        <linearGradient x1="-18.8105628%" y1="-11.8250802%" x2="42.0848536%" y2="35.086648%" id="linearGradient-4">
            <stop stop-color="#32A071" offset="0%"></stop>
            <stop stop-color="#2DA771" offset="6.85%"></stop>
            <stop stop-color="#15CF74" offset="47.62%"></stop>
            <stop stop-color="#06E775" offset="80.09%"></stop>
            <stop stop-color="#00F076" offset="100%"></stop>
        </linearGradient>
    </defs>
    <g id="_UI-Buttons-/playStore_button" stroke="none" stroke-width="1" fill="none" fill-rule="evenodd">
        <g id="bg">
            <rect id="path-1" fill="#F1F4F8" fill-rule="nonzero" x="0" y="3.16384181" width="270" height="76.8361582" rx="38.4180791"></rect>
            <rect id="path-1" fill="#FFFFFF" x="0" y="0" width="270" height="76.8361582" rx="38.4180791"></rect>
        </g>
        <path d="M146.432908,28.4269105 C144.8302,28.4269105 143.479157,27.8661835 142.410685,26.7623901 C141.351043,25.6895029 140.75941,24.2104198 140.785901,22.7004305 C140.785901,21.0888922 141.333382,19.7246036 142.410685,18.6428861 C143.474742,17.5390927 144.825785,16.9783656 146.428493,16.9783656 C148.01354,16.9783656 149.364583,17.5390927 150.450716,18.6428861 C151.528018,19.7599249 152.075499,21.1242135 152.075499,22.7004305 C152.057839,24.316384 151.510357,25.6806726 150.450716,26.7579749 C149.386659,27.8705986 148.035616,28.4269105 146.432908,28.4269105 Z M98.744619,28.4269105 C97.1772324,28.4269105 95.817359,27.8750138 94.7047353,26.7844659 C93.6009419,25.6983333 93.0402149,24.3252143 93.0402149,22.7048457 C93.0402149,21.084477 93.6009419,19.711358 94.7047353,18.6252254 C95.7952831,17.5346775 97.1551566,16.9827808 98.744619,16.9827808 C99.5216895,16.9827808 100.276684,17.1373119 101.000773,17.4507892 C101.711616,17.7554362 102.290003,18.1704625 102.718275,18.6782074 L102.824239,18.8062475 L101.627727,19.9806836 L101.504102,19.8349829 C100.828581,19.0314213 99.9234703,18.6384709 98.7269583,18.6384709 C97.6584863,18.6384709 96.7268847,19.0181758 95.9586445,19.7687553 C95.1859892,20.52375 94.7930387,21.5127488 94.7930387,22.7092608 C94.7930387,23.9057728 95.1859892,24.8947717 95.9586445,25.6497664 C96.7268847,26.4003459 97.6584863,26.7800508 98.7269583,26.7800508 C99.8660731,26.7800508 100.824166,26.4003459 101.57033,25.6497664 C102.011847,25.208249 102.285588,24.5901247 102.382722,23.808639 L98.5459362,23.808639 L98.5459362,22.1573641 L104.029582,22.1573641 L104.051658,22.30748 C104.091394,22.585636 104.131131,22.8726222 104.131131,23.1375327 C104.131131,24.6607675 103.671953,25.8926009 102.762427,26.8021266 C101.729276,27.879429 100.378233,28.4269105 98.744619,28.4269105 Z M162.150925,28.1929063 L160.459914,28.1929063 L155.280915,19.9056257 L155.325067,21.3979543 L155.325067,28.1884911 L153.634056,28.1884911 L153.634056,17.216785 L155.563487,17.216785 L155.616469,17.3006733 L160.486405,25.1067 L160.442253,23.6187866 L160.442253,17.216785 L162.150925,17.216785 L162.150925,28.1929063 L162.150925,28.1929063 Z M133.726038,28.1929063 L132.012951,28.1929063 L132.012951,18.8680599 L129.041539,18.8680599 L129.041539,17.216785 L136.693035,17.216785 L136.693035,18.8680599 L133.721623,18.8680599 L133.721623,28.1929063 L133.726038,28.1929063 Z M127.646345,28.1929063 L125.937672,28.1929063 L125.937672,17.216785 L127.646345,17.216785 L127.646345,28.1929063 Z M118.043342,28.1929063 L116.33467,28.1929063 L116.33467,18.8680599 L113.363258,18.8680599 L113.363258,17.216785 L121.014754,17.216785 L121.014754,18.8680599 L118.043342,18.8680599 L118.043342,28.1929063 Z M112.281541,28.1752456 L105.729423,28.1752456 L105.729423,17.216785 L112.281541,17.216785 L112.281541,18.8680599 L107.442511,18.8680599 L107.442511,21.8792082 L111.809117,21.8792082 L111.809117,23.5128224 L107.442511,23.5128224 L107.442511,26.5239707 L112.281541,26.5239707 L112.281541,28.1752456 Z M143.664594,25.6276905 C144.428419,26.3915155 145.355605,26.7756356 146.432908,26.7756356 C147.541116,26.7756356 148.446227,26.4003459 149.201222,25.6276905 C149.951801,24.877111 150.331506,23.8925273 150.331506,22.7048457 C150.331506,21.517164 149.951801,20.5281651 149.205637,19.7820008 C148.441812,19.0181758 147.51021,18.6340557 146.437323,18.6340557 C145.329114,18.6340557 144.424004,19.0093455 143.673424,19.7820008 C142.922845,20.5325803 142.54314,21.517164 142.54314,22.7048457 C142.54314,23.8925273 142.91843,24.8815262 143.664594,25.6276905 L143.664594,25.6276905 Z M140.626955,43.5179734 C136.454616,43.5179734 133.072593,46.6836528 133.072593,51.0502594 C133.072593,55.3771294 136.476692,58.5825453 140.626955,58.5825453 C144.799294,58.5825453 148.181316,55.3947901 148.181316,51.0502594 C148.181316,46.6836528 144.799294,43.5179734 140.626955,43.5179734 Z M140.626955,55.5978881 C138.34431,55.5978881 136.379558,53.7081938 136.379558,51.0325987 C136.379558,48.317267 138.348725,46.4673093 140.626955,46.4673093 C142.909599,46.4673093 144.874359,48.317267 144.874359,51.0325987 C144.878767,53.7258545 142.909599,55.5978881 140.626955,55.5978881 Z M124.145112,43.5179734 C119.972773,43.5179734 116.59075,46.6836528 116.59075,51.0502594 C116.59075,55.3771294 119.994849,58.5825453 124.145112,58.5825453 C128.317451,58.5825453 131.699474,55.3947901 131.699474,51.0502594 C131.699474,46.6836528 128.313036,43.5179734 124.145112,43.5179734 Z M124.145112,55.5978881 C121.862467,55.5978881 119.897715,53.7081938 119.897715,51.0325987 C119.897715,48.317267 121.866883,46.4673093 124.145112,46.4673093 C126.427757,46.4673093 128.392509,48.317267 128.392509,51.0325987 C128.392509,53.7258545 126.427757,55.5978881 124.145112,55.5978881 Z M104.532911,45.8182788 L104.532911,49.0060341 L112.184407,49.0060341 C111.950403,50.7941793 111.35877,52.1143162 110.453659,53.0194268 C109.332205,54.1408808 107.601457,55.3594687 104.550572,55.3594687 C99.8484124,55.3594687 96.1705729,51.5624195 96.1705729,46.8602598 C96.1705729,42.1581 99.8484124,38.3610508 104.550572,38.3610508 C107.089297,38.3610508 108.939255,39.3632952 110.312374,40.6436955 L112.572942,38.3831267 C110.665587,36.5552449 108.126863,35.1556349 104.568233,35.1556349 C98.1176644,35.1556349 92.7046617,40.4096913 92.7046617,46.8425991 C92.7046617,53.2931675 98.1132492,58.5295633 104.568233,58.5295633 C108.051805,58.5295633 110.665587,57.3904485 112.731889,55.2446742 C114.837926,53.1386364 115.504618,50.1672247 115.504618,47.7697855 C115.504618,47.0236212 115.44722,46.3525148 115.328011,45.7829574 L104.528496,45.7829574 C104.532911,45.7785423 104.532911,45.8182788 104.532911,45.8182788 Z M184.752198,48.2996063 C184.120829,46.6085949 182.213474,43.5003127 178.30163,43.5003127 C174.425108,43.5003127 171.202031,46.5511976 171.202031,51.0325987 C171.202031,55.2623349 174.389786,58.5648847 178.67692,58.5648847 C182.120755,58.5648847 184.125244,56.4588469 184.950881,55.2225983 L182.394496,53.509511 C181.546782,54.7678355 180.367931,55.5934729 178.69458,55.5934729 C177.003569,55.5934729 175.820302,54.8252327 175.034402,53.3108282 L185.105412,49.1384893 C185.105412,49.1429044 184.752198,48.2996063 184.752198,48.2996063 Z M174.482505,50.8162552 C174.403032,47.9066559 176.743074,46.4275728 178.416424,46.4275728 C179.736561,46.4275728 180.83594,47.0766033 181.211229,48.0214504 L174.482505,50.8162552 Z M166.301188,58.114537 L169.608153,58.114537 L169.608153,35.9856875 L166.301188,35.9856875 L166.301188,58.114537 Z M160.870525,45.1913242 L160.751315,45.1913242 C160.005151,44.3038743 158.58788,43.5003127 156.777659,43.5003127 C153.020347,43.5003127 149.558851,46.8072777 149.558851,51.0546746 C149.558851,55.2844108 153.002686,58.5516391 156.777659,58.5516391 C158.565804,58.5516391 160.005151,57.7436624 160.751315,56.8385518 L160.870525,56.8385518 L160.870525,57.9202693 C160.870525,60.7945473 159.334045,62.3442732 156.857132,62.3442732 C154.830568,62.3442732 153.572243,60.8872659 153.060083,59.668678 L150.185805,60.8696052 C151.011443,62.8564333 153.214614,65.3156849 156.852717,65.3156849 C160.729239,65.3156849 164.014129,63.0330402 164.014129,57.4655065 L164.014129,43.9506604 L160.888186,43.9506604 L160.888186,45.1913242 C160.892601,45.1913242 160.870525,45.1913242 160.870525,45.1913242 Z M157.073476,55.5978881 C154.790831,55.5978881 152.883476,53.6905331 152.883476,51.0546746 C152.883476,48.3967401 154.790831,46.4717245 157.073476,46.4717245 C159.334045,46.4717245 161.086869,48.418816 161.086869,51.0546746 C161.108944,53.6905331 159.33846,55.5978881 157.073476,55.5978881 Z M200.236212,35.9856875 L192.328636,35.9856875 L192.328636,58.114537 L195.635601,58.114537 L195.635601,49.7345377 L200.240627,49.7345377 C203.900806,49.7345377 207.499172,47.0810184 207.499172,42.8689429 C207.499172,38.6568674 203.914051,35.9856875 200.236212,35.9856875 Z M200.333346,46.6439163 L195.631186,46.6439163 L195.631186,39.0498179 L200.333346,39.0498179 C202.810258,39.0498179 204.209868,41.0940432 204.209868,42.8468671 C204.209868,44.5820302 202.792597,46.6439163 200.333346,46.6439163 Z M220.753523,43.4782369 C218.351669,43.4782369 215.874756,44.5422937 214.850436,46.8602598 L217.782111,48.0788476 C218.413481,46.8602598 219.570256,46.4452335 220.79326,46.4452335 C222.506347,46.4452335 224.237095,47.4695537 224.276831,49.2974355 L224.276831,49.5314397 C223.685198,49.1958865 222.387137,48.6837264 220.832996,48.6837264 C217.667317,48.6837264 214.457486,50.4144744 214.457486,53.6596269 C214.457486,56.6310387 217.053608,58.5383936 219.945546,58.5383936 C222.166378,58.5383936 223.389382,57.5361492 224.153207,56.3749586 L224.272416,56.3749586 L224.272416,58.0880459 L227.460171,58.0880459 L227.460171,49.6109128 C227.460171,45.6637477 224.528496,43.4782369 220.753523,43.4782369 Z M220.338497,55.5978881 C219.256779,55.5978881 217.742375,55.0680673 217.742375,53.7081938 C217.742375,51.9951065 219.632069,51.346076 221.243607,51.346076 C222.700614,51.346076 223.389382,51.6595533 224.254756,52.0922403 C224.016336,54.0790684 222.33857,55.5802274 220.338497,55.5978881 Z M239.089738,43.9506604 L235.292689,53.5492476 L235.17348,53.5492476 L231.23956,43.9506604 L227.68093,43.9506604 L233.584017,57.3683726 L230.219655,64.8256006 L233.66349,64.8256006 L242.745502,43.9506604 C242.745502,43.9506604 239.089738,43.9506604 239.089738,43.9506604 Z M209.322639,58.114537 L212.629604,58.114537 L212.629604,35.9856875 L209.322639,35.9856875 L209.322639,58.114537 Z" id="Combined-Shape" fill="#101213"></path>
        <g id="Group-4" transform="translate(36.665109, 15.640898)">
            <path d="M0.807976747,0.69734091 C0.295816623,1.24923759 7.27595761e-12,2.09253573 7.27595761e-12,3.1963291 L7.27595761e-12,42.3456723 C7.27595761e-12,43.4494657 0.295816623,44.2927638 0.825637441,44.8225847 L0.962507819,44.9417943 L22.8970897,23.0072125 L22.8970897,22.5171282 L0.944847125,0.578131226 C0.944847125,0.578131226 0.807976747,0.69734091 0.807976747,0.69734091 Z" id="Path" fill="url(#linearGradient-1)"></path>
            <path d="M30.1953714,30.3408157 L22.879429,23.0248732 L22.879429,22.5127131 L30.1953714,15.1967706 L30.3543177,15.2939044 L39.0080577,20.2124077 C41.48497,21.6076025 41.48497,23.9123231 39.0080577,25.3251786 L30.3543177,30.2436818 C30.3543177,30.2436818 30.1953714,30.3408157 30.1953714,30.3408157 Z" id="Path" fill="url(#linearGradient-2)"></path>
            <path d="M30.3543177,30.2436818 L22.879429,22.7687931 L0.807976747,44.8402454 C1.61595349,45.7056194 2.97141175,45.8027532 4.48581626,44.959455 L30.3543177,30.2436818" id="Path" fill="url(#linearGradient-3)"></path>
            <path d="M30.3543177,15.2939044 L4.48581626,0.600207093 C2.97141175,-0.265166909 1.61153832,-0.145957225 0.807976747,0.719416777 L22.879429,22.7687931 L30.3543177,15.2939044 Z" id="Path" fill="url(#linearGradient-4)"></path>
            <path d="M30.1953714,30.0847356 L4.50347695,44.6812991 C3.06854557,45.5069366 1.78814526,45.4495393 0.962507819,44.6989598 L0.825637441,44.8358302 L0.962507819,44.9550399 C1.78814526,45.7012042 3.06854557,45.7630166 4.50347695,44.9373792 L30.3719784,30.2436818 C30.3719784,30.2436818 30.1953714,30.0847356 30.1953714,30.0847356 Z" id="Path" fill="#000000" fill-rule="nonzero" opacity="0.2"></path>
            <path d="M39.0080577,25.0690985 L30.1732956,30.0847356 L30.3322418,30.2436818 L38.9859818,25.3251786 C40.2266456,24.6187508 40.8359395,23.6915644 40.8359395,22.7687931 C40.7608816,23.6165064 40.1295118,24.420068 39.0080577,25.0690985 Z" id="Path" fill="#000000" fill-rule="nonzero" opacity="0.12"></path>
            <path d="M4.48581626,0.856287155 L39.0080577,20.4684878 C40.1295118,21.0998576 40.7608816,21.925495 40.8580154,22.7687931 C40.8580154,21.8460219 40.2487214,20.9188354 39.0080577,20.2124077 L4.48581626,0.600207093 C2.00890393,-0.817063594 7.27595761e-12,0.366202899 7.27595761e-12,3.1963291 L7.27595761e-12,3.45240916 C7.27595761e-12,0.617867787 2.00890393,-0.543322838 4.48581626,0.856287155 Z" id="Path" fill="#FFFFFF" opacity="0.25"></path>
        </g>
    </g>
</svg>