<svg width="302" height="94" viewBox="0 0 302 94" fill="none" xmlns="http://www.w3.org/2000/svg">
<rect x="36" y="19" width="229" height="56" rx="5" fill="#0258F8"/>
<path d="M225.136 51.312C224.752 51.84 224.213 52.104 223.52 52.104C222.827 52.104 222.285 51.84 221.896 51.312C221.512 50.784 221.32 50.08 221.32 49.2C221.32 48.32 221.512 47.616 221.896 47.088C222.285 46.56 222.827 46.296 223.52 46.296C224.213 46.296 224.752 46.56 225.136 47.088C225.525 47.616 225.72 48.32 225.72 49.2C225.72 50.08 225.525 50.784 225.136 51.312ZM223.52 51.208C223.936 51.208 224.253 51.0347 224.472 50.688C224.691 50.3413 224.8 49.8453 224.8 49.2C224.8 48.5547 224.691 48.0587 224.472 47.712C224.253 47.3653 223.936 47.192 223.52 47.192C223.109 47.192 222.792 47.3653 222.568 47.712C222.349 48.0587 222.24 48.5547 222.24 49.2C222.24 49.8453 222.349 50.3413 222.568 50.688C222.792 51.0347 223.109 51.208 223.52 51.208ZM230.175 51.312C229.791 51.84 229.252 52.104 228.559 52.104C227.866 52.104 227.324 51.84 226.935 51.312C226.551 50.784 226.359 50.08 226.359 49.2C226.359 48.32 226.551 47.616 226.935 47.088C227.324 46.56 227.866 46.296 228.559 46.296C229.252 46.296 229.791 46.56 230.175 47.088C230.564 47.616 230.759 48.32 230.759 49.2C230.759 50.08 230.564 50.784 230.175 51.312ZM228.559 51.208C228.975 51.208 229.292 51.0347 229.511 50.688C229.73 50.3413 229.839 49.8453 229.839 49.2C229.839 48.5547 229.73 48.0587 229.511 47.712C229.292 47.3653 228.975 47.192 228.559 47.192C228.148 47.192 227.831 47.3653 227.607 47.712C227.388 48.0587 227.279 48.5547 227.279 49.2C227.279 49.8453 227.388 50.3413 227.607 50.688C227.831 51.0347 228.148 51.208 228.559 51.208ZM232.526 48.92C232.409 49.0373 232.267 49.096 232.102 49.096C231.937 49.096 231.795 49.0373 231.678 48.92C231.561 48.8027 231.502 48.6613 231.502 48.496C231.502 48.3253 231.558 48.184 231.67 48.072C231.787 47.9547 231.931 47.896 232.102 47.896C232.267 47.896 232.409 47.9547 232.526 48.072C232.643 48.1893 232.702 48.3307 232.702 48.496C232.702 48.6613 232.643 48.8027 232.526 48.92ZM232.526 51.92C232.409 52.0373 232.267 52.096 232.102 52.096C231.937 52.096 231.795 52.0373 231.678 51.92C231.561 51.8027 231.502 51.6613 231.502 51.496C231.502 51.3307 231.558 51.1893 231.67 51.072C231.787 50.9547 231.931 50.896 232.102 50.896C232.267 50.896 232.409 50.9547 232.526 51.072C232.643 51.1893 232.702 51.3307 232.702 51.496C232.702 51.6613 232.643 51.8027 232.526 51.92ZM233.365 52V51.28L235.317 49.288C235.792 48.8133 236.029 48.4027 236.029 48.056C236.029 47.784 235.947 47.5733 235.781 47.424C235.621 47.2693 235.416 47.192 235.165 47.192C234.696 47.192 234.349 47.424 234.125 47.888L233.349 47.432C233.525 47.0587 233.773 46.776 234.093 46.584C234.413 46.392 234.768 46.296 235.157 46.296C235.648 46.296 236.069 46.4507 236.421 46.76C236.773 47.0693 236.949 47.4907 236.949 48.024C236.949 48.5947 236.632 49.2027 235.997 49.848L234.733 51.112H237.053V52H233.365ZM239.473 48.512C240.007 48.512 240.457 48.672 240.825 48.992C241.193 49.3067 241.377 49.744 241.377 50.304C241.377 50.864 241.188 51.304 240.809 51.624C240.431 51.944 239.967 52.104 239.417 52.104C238.975 52.104 238.583 52.0027 238.241 51.8C237.9 51.592 237.657 51.2933 237.513 50.904L238.305 50.448C238.455 50.9547 238.825 51.208 239.417 51.208C239.732 51.208 239.983 51.128 240.169 50.968C240.361 50.8027 240.457 50.5813 240.457 50.304C240.457 50.0267 240.364 49.808 240.177 49.648C239.991 49.488 239.743 49.408 239.433 49.408H237.801L238.017 46.4H241.137V47.264H238.865L238.769 48.512H239.473Z" fill="#97BCFF"/>
<rect x="75" y="39" width="17" height="15" fill="#D9D9D9"/>
<path d="M79.9375 54.1458L90.1458 47.5833L79.9375 41.0208V54.1458ZM83.5833 62.1667C81.566 62.1667 79.6701 61.7836 77.8958 61.0175C76.1215 60.2514 74.5781 59.2126 73.2656 57.901C71.9531 56.5885 70.9143 55.0451 70.1492 53.2708C69.384 51.4965 69.001 49.6007 69 47.5833C69 45.566 69.3831 43.6701 70.1492 41.8958C70.9153 40.1215 71.9541 38.5781 73.2656 37.2656C74.5781 35.9531 76.1215 34.9143 77.8958 34.1492C79.6701 33.384 81.566 33.001 83.5833 33C85.6007 33 87.4965 33.3831 89.2708 34.1492C91.0451 34.9153 92.5885 35.9541 93.901 37.2656C95.2135 38.5781 96.2528 40.1215 97.019 41.8958C97.7851 43.6701 98.1676 45.566 98.1667 47.5833C98.1667 49.6007 97.7836 51.4965 97.0175 53.2708C96.2514 55.0451 95.2126 56.5885 93.901 57.901C92.5885 59.2135 91.0451 60.2528 89.2708 61.019C87.4965 61.7851 85.6007 62.1676 83.5833 62.1667Z" fill="#3678F8"/>
<rect x="105" y="43" width="1" height="9" fill="#5290FF"/>
<rect x="108" y="37" width="1" height="22" fill="#5290FF"/>
<rect x="111" y="38" width="1" height="19" fill="#5290FF"/>
<rect x="114" y="40" width="1" height="15" fill="#5290FF"/>
<rect x="117" y="43" width="1" height="9" fill="#5290FF"/>
<rect x="120" y="41" width="1" height="13" fill="#5290FF"/>
<rect x="123" y="37" width="1" height="21" fill="#5290FF"/>
<rect x="126" y="39" width="1" height="17" fill="#5290FF"/>
<rect x="129" y="35" width="1" height="24" fill="#5290FF"/>
<rect x="138" y="41" width="1" height="12" fill="#5290FF"/>
<rect x="141" y="42" width="1" height="9" fill="#5290FF"/>
<rect x="144" y="39" width="1" height="15" fill="#5290FF"/>
<rect x="147" y="38" width="1" height="18" fill="#5290FF"/>
<rect x="150" y="40" width="1" height="14" fill="#5290FF"/>
<rect x="153" y="40" width="1" height="14" fill="#5290FF"/>
<rect x="156" y="43" width="1" height="8" fill="#5290FF"/>
<rect x="168" y="42" width="1" height="9" fill="#5290FF"/>
<rect x="165" y="39" width="1" height="15" fill="#5290FF"/>
<rect x="162" y="38" width="1" height="19" fill="#5290FF"/>
<path d="M159.5 36.5V58M171.5 41.5V53.5M174.5 37.5V57M177.5 39V55M180.5 35V59M183.5 30V64M186.5 31V63M189.5 34V60M192.5 33V61M195.5 29V65M199.5 34V59M202.5 62V31M205.5 29.5V64M208.5 56V37M211.5 38V55" stroke="#5290FF"/>
<rect x="135" y="37" width="1" height="20" fill="#5290FF"/>
<rect x="132" y="38" width="1" height="17" fill="#5290FF"/>
</svg>
